<svg version="1.1" xmlns="http://www.w3.org/2000/svg" xmlns:xlink="http://www.w3.org/1999/xlink" width="54.96605" height="620.46227" viewBox="0,0,54.96605,620.46227"><g transform="translate(-270.82149,183.80687)"><g data-paper-data="{&quot;isPaintingLayer&quot;:true}" fill-rule="nonzero" stroke-linecap="butt" stroke-linejoin="miter" stroke-miterlimit="10" stroke-dasharray="" stroke-dashoffset="0" style="mix-blend-mode: normal"><path d="M293.18274,-147.43384c0,0 -6.17794,-33.33456 -5.2444,-34.47156c0.7464,-0.90908 4.85891,0.60579 7.59449,2.97556c2.64422,2.29064 3.8706,5.42382 7.00806,5.445c4.85012,0.03276 9.47739,-5.00003 13.20333,-7.35363c3.66171,-2.31303 6.46428,-1.94729 6.46428,-1.94729c0,0 -10.57648,18.13879 -14.51248,34.889c-1.38028,5.87397 2.93849,10.15646 2.71586,15.51118c-0.20445,4.91743 4.56561,10.25776 5.13525,13.46623c1.47569,8.31172 4.93289,19.98925 3.98775,26.3308c-0.84602,5.67653 5.21911,16.982 5.25268,22.52674c0.07521,12.42327 -8.66802,22.0343 -8.66802,22.0343c0,0 -19.9914,16.40512 -23.66887,15.85704c-9.42351,-1.40447 -20.35689,-14.50512 -20.35689,-14.50512c0,0 -0.53097,-4.76198 -0.27229,-8.67202c0.65255,-9.86352 2.75438,-26.8207 4.76811,-40.33214c2.77267,-18.60368 16.59316,-51.75408 16.59316,-51.75408z" fill-opacity="0.11734" fill="#9966ff" stroke="#000000" stroke-width="2"/><path d="M299.96247,434.1554c0,-1.38071 1.11929,-2.5 2.5,-2.5c1.38071,0 2.5,1.11929 2.5,2.5c0,1.38071 -1.11929,2.5 -2.5,2.5c-1.38071,0 -2.5,-1.11929 -2.5,-2.5z" fill="none" stroke="none" stroke-width="0.5"/></g></g></svg>